<svg id="Logo" xmlns="http://www.w3.org/2000/svg" viewBox="0 0 485.58 560.7"><defs><style>.cls-1,.cls-10,.cls-4,.cls-6,.cls-7,.cls-9{stroke:#c3922e;}.cls-1,.cls-10,.cls-3,.cls-4,.cls-5,.cls-6,.cls-7,.cls-9{stroke-miterlimit:10;}.cls-1,.cls-3,.cls-5,.cls-7{stroke-width:2px;}.cls-10,.cls-2,.cls-5{fill:#fff;}.cls-3,.cls-4,.cls-6,.cls-7{fill:none;}.cls-3,.cls-5{stroke:#000;}.cls-6{stroke-width:4.91px;}.cls-8{fill:#c3922e;}.cls-9{stroke-width:1.92px;}.cls-10{stroke-width:0.96px;}</style></defs><polygon class="cls-1" points="1 140.75 1 419.95 242.79 559.55 484.58 419.95 484.58 140.75 242.79 1.16 1 140.75"/><polygon class="cls-2" points="15.8 398.48 15.8 410.35 26.07 416.28 36.35 410.35 36.35 398.48 26.07 392.55 15.8 398.48"/><line class="cls-3" x1="36.66" y1="398.3" x2="15.48" y2="410.53"/><polygon class="cls-4" points="15.48 398.3 15.48 410.53 26.07 416.64 36.66 410.53 36.66 398.3 26.07 392.19 15.48 398.3"/><polygon class="cls-2" points="239.72 544.83 251.18 541.76 254.25 530.3 245.86 521.92 234.4 524.99 231.33 536.45 239.72 544.83"/><line class="cls-3" x1="234.14" y1="524.73" x2="251.44" y2="542.02"/><polygon class="cls-4" points="239.63 545.19 251.44 542.02 254.6 530.21 245.96 521.56 234.14 524.73 230.98 536.54 239.63 545.19"/><polygon class="cls-2" points="340.69 472.09 350.73 478.41 361.22 472.88 361.67 461.02 351.63 454.7 341.14 460.24 340.69 472.09"/><line class="cls-3" x1="351.65" y1="454.34" x2="350.71" y2="478.78"/><polygon class="cls-4" points="340.36 472.26 350.71 478.78 361.53 473.07 362 460.85 351.65 454.34 340.83 460.04 340.36 472.26"/><polygon class="cls-2" points="122.97 471.97 131.36 480.35 142.82 477.28 145.89 465.82 137.5 457.44 126.04 460.51 122.97 471.97"/><line class="cls-3" x1="137.6" y1="457.08" x2="131.27" y2="480.71"/><polygon class="cls-4" points="122.62 472.06 131.27 480.71 143.08 477.54 146.25 465.73 137.6 457.08 125.78 460.25 122.62 472.06"/><polygon class="cls-2" points="13.25 283.42 21.64 291.81 33.1 288.74 36.17 277.28 27.78 268.89 16.32 271.96 13.25 283.42"/><line class="cls-3" x1="27.88" y1="268.54" x2="21.55" y2="292.16"/><polygon class="cls-4" points="12.9 283.52 21.55 292.17 33.36 289 36.52 277.19 27.88 268.54 16.06 271.7 12.9 283.52"/><polygon class="cls-2" points="17.16 162.22 27.43 168.15 37.71 162.22 37.71 150.36 27.43 144.43 17.16 150.36 17.16 162.22"/><line class="cls-3" x1="27.43" y1="144.06" x2="27.43" y2="168.52"/><polygon class="cls-4" points="16.84 162.4 27.43 168.52 38.02 162.4 38.02 150.17 27.43 144.06 16.84 150.17 16.84 162.4"/><polygon class="cls-2" points="123.65 88.53 126.72 99.99 138.18 103.06 146.57 94.67 143.5 83.21 132.04 80.14 123.65 88.53"/><line class="cls-3" x1="143.76" y1="82.95" x2="126.46" y2="100.25"/><polygon class="cls-4" points="123.3 88.44 126.47 100.25 138.28 103.41 146.93 94.77 143.76 82.95 131.95 79.79 123.3 88.44"/><polygon class="cls-2" points="346.11 83.05 340.18 93.33 346.11 103.6 357.97 103.6 363.9 93.33 357.97 83.05 346.11 83.05"/><line class="cls-3" x1="364.27" y1="93.33" x2="339.81" y2="93.33"/><polygon class="cls-4" points="345.93 82.73 339.81 93.33 345.93 103.92 358.16 103.92 364.27 93.33 358.16 82.73 345.93 82.73"/><polygon class="cls-2" points="253.06 20.98 242.79 15.05 232.52 20.98 232.52 32.84 242.79 38.77 253.06 32.84 253.06 20.98"/><line class="cls-3" x1="242.79" y1="39.14" x2="242.79" y2="14.68"/><polygon class="cls-4" points="253.38 20.8 242.79 14.68 232.2 20.8 232.2 33.03 242.79 39.14 253.38 33.03 253.38 20.8"/><polygon class="cls-2" points="464.36 148.28 452.9 151.35 449.83 162.81 458.22 171.2 469.68 168.13 472.75 156.67 464.36 148.28"/><line class="cls-3" x1="469.94" y1="168.39" x2="452.64" y2="151.09"/><polygon class="cls-4" points="464.46 147.93 452.64 151.09 449.48 162.91 458.13 171.55 469.94 168.39 473.1 156.58 464.46 147.93"/><polygon class="cls-2" points="457.08 269.47 451.15 279.74 457.08 290.01 468.94 290.01 474.87 279.74 468.94 269.47 457.08 269.47"/><line class="cls-3" x1="475.24" y1="279.74" x2="450.78" y2="279.74"/><polygon class="cls-4" points="456.9 269.15 450.78 279.74 456.9 290.33 469.13 290.33 475.24 279.74 469.13 269.15 456.9 269.15"/><polygon class="cls-2" points="448.11 396.67 451.18 408.13 462.64 411.2 471.03 402.81 467.96 391.35 456.5 388.28 448.11 396.67"/><line class="cls-3" x1="468.22" y1="391.09" x2="450.92" y2="408.39"/><polygon class="cls-4" points="447.76 396.58 450.92 408.39 462.74 411.55 471.38 402.91 468.22 391.09 456.41 387.93 447.76 396.58"/><path class="cls-5" d="M78.11,195.8V381A24.61,24.61,0,0,0,90.42,402.3l160.37,92.59a24.64,24.64,0,0,0,24.61,0L435.77,402.3A24.61,24.61,0,0,0,448.08,381V195.8a24.59,24.59,0,0,0-12.31-21.31L275.4,81.9a24.59,24.59,0,0,0-24.61,0L90.42,174.49A24.59,24.59,0,0,0,78.11,195.8Z" transform="translate(-20.3 -8.04)"/><path class="cls-6" d="M70.41,192V384.84A25.63,25.63,0,0,0,83.22,407l167.06,96.45a25.62,25.62,0,0,0,25.63,0L443,407a25.64,25.64,0,0,0,12.82-22.2V192A25.65,25.65,0,0,0,443,169.74L275.91,73.29a25.62,25.62,0,0,0-25.63,0L83.22,169.74A25.65,25.65,0,0,0,70.41,192Z" transform="translate(-20.3 -8.04)"/><line class="cls-7" x1="136.19" y1="412.43" x2="136.19" y2="374.66"/><circle class="cls-2" cx="136.19" cy="412.26" r="3.01"/><path class="cls-8" d="M159.9,420.3a3.41,3.41,0,1,0-3.41,3.41,3.41,3.41,0,0,0,3.41-3.41Zm-6,0a2.61,2.61,0,1,1,2.61,2.61,2.61,2.61,0,0,1-2.61-2.61Z" transform="translate(-20.3 -8.04)"/><polyline class="cls-7" points="146.61 363.58 156.35 373.32 156.35 396.24"/><path class="cls-2" d="M173.65,404.11a3,3,0,1,0,3-3A3,3,0,0,0,173.65,404.11Z" transform="translate(-20.3 -8.04)"/><path class="cls-8" d="M173.25,404.11a3.41,3.41,0,1,1,3.41,3.41,3.41,3.41,0,0,1-3.41-3.41Zm6,0a2.61,2.61,0,1,0-2.6,2.61,2.61,2.61,0,0,0,2.6-2.61Z" transform="translate(-20.3 -8.04)"/><line class="cls-7" x1="224.27" y1="393.03" x2="224.27" y2="412.71"/><path class="cls-2" d="M241.57,401.24a3,3,0,1,1,3,3A3,3,0,0,1,241.57,401.24Z" transform="translate(-20.3 -8.04)"/><path class="cls-8" d="M241.17,401.24a3.41,3.41,0,1,0,3.41-3.41,3.41,3.41,0,0,0-3.41,3.41Zm6,0a2.61,2.61,0,1,1-2.61-2.61,2.61,2.61,0,0,1,2.61,2.61Z" transform="translate(-20.3 -8.04)"/><path class="cls-2" d="M241.57,420.58a3,3,0,1,0,3-3A3,3,0,0,0,241.57,420.58Z" transform="translate(-20.3 -8.04)"/><path class="cls-8" d="M241.17,420.58a3.41,3.41,0,1,1,3.41,3.41,3.41,3.41,0,0,1-3.41-3.41Zm6,0a2.61,2.61,0,1,0-2.61,2.61,2.61,2.61,0,0,0,2.61-2.61Z" transform="translate(-20.3 -8.04)"/><line class="cls-7" x1="194.65" y1="359.7" x2="194.65" y2="340.01"/><path class="cls-2" d="M218,367.57a3,3,0,1,1-3-3A3,3,0,0,1,218,367.57Z" transform="translate(-20.3 -8.04)"/><path class="cls-8" d="M218.36,367.57A3.41,3.41,0,1,0,215,371a3.41,3.41,0,0,0,3.41-3.41Zm-6,0a2.61,2.61,0,1,1,2.6,2.61,2.6,2.6,0,0,1-2.6-2.61Z" transform="translate(-20.3 -8.04)"/><circle class="cls-2" cx="194.65" cy="340.18" r="3.01"/><path class="cls-8" d="M218.36,348.22a3.41,3.41,0,1,1-3.41-3.4,3.41,3.41,0,0,1,3.41,3.4Zm-6,0a2.61,2.61,0,1,0,2.6-2.6,2.6,2.6,0,0,0-2.6,2.6Z" transform="translate(-20.3 -8.04)"/><polyline class="cls-7" points="153.82 434.48 153.82 420.28 179.98 394.12 179.98 328.17"/><path class="cls-2" d="M177.13,442.35a3,3,0,1,1-3-3A3,3,0,0,1,177.13,442.35Z" transform="translate(-20.3 -8.04)"/><path class="cls-8" d="M177.53,442.35a3.41,3.41,0,1,0-3.41,3.41,3.41,3.41,0,0,0,3.41-3.41Zm-6,0a2.61,2.61,0,1,1,2.61,2.61,2.61,2.61,0,0,1-2.61-2.61Z" transform="translate(-20.3 -8.04)"/><polyline class="cls-7" points="213.21 360.37 213.21 333.09 200.13 319.61 200.13 306.74"/><path class="cls-2" d="M236.52,368.24a3,3,0,1,1-3-3A3,3,0,0,1,236.52,368.24Z" transform="translate(-20.3 -8.04)"/><path class="cls-8" d="M236.92,368.24a3.41,3.41,0,1,0-3.41,3.4,3.41,3.41,0,0,0,3.41-3.4Zm-6,0a2.61,2.61,0,1,1,2.6,2.6,2.61,2.61,0,0,1-2.6-2.6Z" transform="translate(-20.3 -8.04)"/><polyline class="cls-7" points="189.07 380.92 189.07 421.28 157.14 453.21 162.91 447.45"/><circle class="cls-2" cx="189.07" cy="381.09" r="3.01"/><path class="cls-8" d="M206,389.13a3.41,3.41,0,1,0,3.41-3.41,3.41,3.41,0,0,0-3.41,3.41Zm6,0a2.61,2.61,0,1,1-2.61-2.61,2.61,2.61,0,0,1,2.61,2.61Z" transform="translate(-20.3 -8.04)"/><line class="cls-7" x1="91.96" y1="323.32" x2="91.96" y2="350.35"/><path class="cls-2" d="M109.25,331.53a3,3,0,1,1,3,3A3,3,0,0,1,109.25,331.53Z" transform="translate(-20.3 -8.04)"/><path class="cls-8" d="M108.85,331.53a3.41,3.41,0,1,0,3.41-3.41,3.41,3.41,0,0,0-3.41,3.41Zm6,0a2.61,2.61,0,1,1-2.61-2.61,2.61,2.61,0,0,1,2.61,2.61Z" transform="translate(-20.3 -8.04)"/><line class="cls-7" x1="78.88" y1="346.84" x2="78.88" y2="379.61"/><path class="cls-2" d="M96.17,355.05a3,3,0,1,1,3,3A3,3,0,0,1,96.17,355.05Z" transform="translate(-20.3 -8.04)"/><path class="cls-8" d="M95.77,355.05a3.41,3.41,0,1,0,3.41-3.41,3.41,3.41,0,0,0-3.41,3.41Zm6,0a2.61,2.61,0,1,1-2.61-2.61,2.61,2.61,0,0,1,2.61,2.61Z" transform="translate(-20.3 -8.04)"/><line class="cls-7" x1="224.27" y1="431.3" x2="224.27" y2="477.14"/><path class="cls-2" d="M241.57,439.51a3,3,0,1,1,3,3A3,3,0,0,1,241.57,439.51Z" transform="translate(-20.3 -8.04)"/><path class="cls-8" d="M241.17,439.51a3.41,3.41,0,1,0,3.41-3.41,3.41,3.41,0,0,0-3.41,3.41Zm6,0a2.61,2.61,0,1,1-2.61-2.61,2.61,2.61,0,0,1,2.61,2.61Z" transform="translate(-20.3 -8.04)"/><path class="cls-2" d="M241.57,485a3,3,0,1,0,3-3A3,3,0,0,0,241.57,485Z" transform="translate(-20.3 -8.04)"/><path class="cls-8" d="M241.17,485a3.41,3.41,0,1,1,3.41,3.41,3.41,3.41,0,0,1-3.41-3.41Zm6,0a2.61,2.61,0,1,0-2.61,2.61,2.61,2.61,0,0,0,2.61-2.61Z" transform="translate(-20.3 -8.04)"/><line class="cls-7" x1="202.74" y1="458.49" x2="202.74" y2="479.54"/><circle class="cls-2" cx="202.74" cy="458.66" r="3.01"/><path class="cls-8" d="M219.64,466.7a3.41,3.41,0,1,0,3.4-3.41,3.41,3.41,0,0,0-3.4,3.41Zm6,0a2.61,2.61,0,1,1-2.61-2.61,2.61,2.61,0,0,1,2.61,2.61Z" transform="translate(-20.3 -8.04)"/><polyline class="cls-7" points="175.72 463.84 176.58 462.98 202.74 436.82 202.74 393.22 228.9 367.07 228.9 300.55"/><path class="cls-2" d="M252.21,308.76a3,3,0,1,0-3,3A3,3,0,0,0,252.21,308.76Z" transform="translate(-20.3 -8.04)"/><path class="cls-8" d="M252.61,308.76a3.41,3.41,0,1,1-3.41-3.41,3.41,3.41,0,0,1,3.41,3.41Zm-6,0a2.61,2.61,0,1,0,2.61-2.61,2.61,2.61,0,0,0-2.61,2.61Z" transform="translate(-20.3 -8.04)"/><polyline class="cls-7" points="65.2 318.36 81.69 302.44 82.34 265.45 92.55 255.59"/><path class="cls-2" d="M87.72,328.45a3,3,0,1,1,.07-4.25A3,3,0,0,1,87.72,328.45Z" transform="translate(-20.3 -8.04)"/><path class="cls-8" d="M88,328.74a3.41,3.41,0,1,0-4.82-.09,3.41,3.41,0,0,0,4.82.09Zm-4.18-4.33a2.61,2.61,0,1,1-.07,3.69,2.62,2.62,0,0,1,.07-3.69Z" transform="translate(-20.3 -8.04)"/><path class="cls-2" d="M114.82,265.91a3,3,0,1,0-4.25-.07A3,3,0,0,0,114.82,265.91Z" transform="translate(-20.3 -8.04)"/><path class="cls-8" d="M115.1,266.2a3.41,3.41,0,1,1,.09-4.82,3.41,3.41,0,0,1-.09,4.82Zm-4.18-4.33a2.61,2.61,0,1,0,3.69.07,2.62,2.62,0,0,0-3.69-.07Z" transform="translate(-20.3 -8.04)"/><line class="cls-7" x1="152.88" y1="192.89" x2="152.88" y2="173.21"/><path class="cls-2" d="M176.19,200.76a3,3,0,1,1-3-3A3,3,0,0,1,176.19,200.76Z" transform="translate(-20.3 -8.04)"/><path class="cls-8" d="M176.59,200.76a3.41,3.41,0,1,0-3.41,3.41,3.41,3.41,0,0,0,3.41-3.41Zm-6,0a2.61,2.61,0,1,1,2.61,2.61,2.61,2.61,0,0,1-2.61-2.61Z" transform="translate(-20.3 -8.04)"/><circle class="cls-2" cx="152.88" cy="173.38" r="3.01"/><path class="cls-8" d="M176.59,181.42a3.41,3.41,0,1,1-3.41-3.41,3.41,3.41,0,0,1,3.41,3.41Zm-6,0a2.61,2.61,0,1,0,2.61-2.61,2.61,2.61,0,0,0-2.61,2.61Z" transform="translate(-20.3 -8.04)"/><polyline class="cls-7" points="105.04 137.49 105.04 290.49 78.88 316.65 78.88 330.85"/><path class="cls-2" d="M96.17,338.72a3,3,0,1,0,3-3A3,3,0,0,0,96.17,338.72Z" transform="translate(-20.3 -8.04)"/><path class="cls-8" d="M95.77,338.72a3.41,3.41,0,1,1,3.41,3.41,3.41,3.41,0,0,1-3.41-3.41Zm6,0a2.61,2.61,0,1,0-2.61,2.61,2.61,2.61,0,0,0,2.61-2.61Z" transform="translate(-20.3 -8.04)"/><polyline class="cls-7" points="116.12 429.53 116.12 265.25 136.78 235.79 137.19 196.13 136.82 163.86"/><path class="cls-2" d="M160.13,172a3,3,0,1,0-3,3A3,3,0,0,0,160.13,172Z" transform="translate(-20.3 -8.04)"/><path class="cls-8" d="M160.53,172a3.41,3.41,0,1,1-3.45-3.37,3.41,3.41,0,0,1,3.45,3.37Zm-6,.07a2.61,2.61,0,1,0,2.58-2.64,2.62,2.62,0,0,0-2.58,2.64C154.53,173.54,154.5,170.66,154.51,172.1Z" transform="translate(-20.3 -8.04)"/><line class="cls-7" x1="65.8" y1="370.66" x2="65.8" y2="333.53"/><path class="cls-2" d="M89.11,378.53a3,3,0,1,1-3-3A3,3,0,0,1,89.11,378.53Z" transform="translate(-20.3 -8.04)"/><path class="cls-8" d="M89.51,378.53a3.41,3.41,0,1,0-3.41,3.4,3.41,3.41,0,0,0,3.41-3.4Zm-6,0a2.61,2.61,0,1,1,2.61,2.6,2.61,2.61,0,0,1-2.61-2.6Z" transform="translate(-20.3 -8.04)"/><path class="cls-2" d="M89.11,341.75a3,3,0,1,0-3,3A3,3,0,0,0,89.11,341.75Z" transform="translate(-20.3 -8.04)"/><path class="cls-8" d="M89.51,341.75a3.41,3.41,0,1,1-3.41-3.41,3.41,3.41,0,0,1,3.41,3.41Zm-6,0a2.61,2.61,0,1,0,2.61-2.61,2.61,2.61,0,0,0-2.61,2.61Z" transform="translate(-20.3 -8.04)"/><line class="cls-7" x1="123.95" y1="167.29" x2="123.95" y2="213.14"/><path class="cls-2" d="M141.24,175.51a3,3,0,1,1,3,3A3,3,0,0,1,141.24,175.51Z" transform="translate(-20.3 -8.04)"/><path class="cls-8" d="M140.84,175.51a3.41,3.41,0,1,0,3.41-3.41,3.41,3.41,0,0,0-3.41,3.41Zm6,0a2.61,2.61,0,1,1-2.61-2.61,2.61,2.61,0,0,1,2.61,2.61Z" transform="translate(-20.3 -8.04)"/><path class="cls-2" d="M141.24,221a3,3,0,1,0,3-3A3,3,0,0,0,141.24,221Z" transform="translate(-20.3 -8.04)"/><path class="cls-8" d="M140.84,221a3.41,3.41,0,1,1,3.41,3.4,3.41,3.41,0,0,1-3.41-3.4Zm6,0a2.61,2.61,0,1,0-2.61,2.6,2.61,2.61,0,0,0,2.61-2.6Z" transform="translate(-20.3 -8.04)"/><line class="cls-7" x1="123.95" y1="126.57" x2="123.95" y2="151.05"/><path class="cls-2" d="M141.24,158.92a3,3,0,1,0,3-3A3,3,0,0,0,141.24,158.92Z" transform="translate(-20.3 -8.04)"/><path class="cls-8" d="M140.84,158.92a3.41,3.41,0,1,1,3.41,3.41,3.41,3.41,0,0,1-3.41-3.41Zm6,0a2.61,2.61,0,1,0-2.61,2.61,2.61,2.61,0,0,0,2.61-2.61Z" transform="translate(-20.3 -8.04)"/><polyline class="cls-7" points="65.8 291.61 65.8 251.25 91.96 225.09 91.96 145.04"/><circle class="cls-2" cx="65.8" cy="291.44" r="3.01"/><path class="cls-8" d="M89.51,299.48a3.41,3.41,0,1,0-3.41,3.41,3.41,3.41,0,0,0,3.41-3.41Zm-6,0a2.61,2.61,0,1,1,2.61,2.61,2.61,2.61,0,0,1-2.61-2.61Z" transform="translate(-20.3 -8.04)"/><line class="cls-7" x1="74.78" y1="221.86" x2="74.78" y2="184.73"/><path class="cls-2" d="M98.09,229.73a3,3,0,1,1-3-3A3,3,0,0,1,98.09,229.73Z" transform="translate(-20.3 -8.04)"/><path class="cls-8" d="M98.49,229.73a3.41,3.41,0,1,0-3.41,3.4,3.41,3.41,0,0,0,3.41-3.4Zm-6,0a2.61,2.61,0,1,1,2.61,2.6,2.61,2.61,0,0,1-2.61-2.6Z" transform="translate(-20.3 -8.04)"/><path class="cls-2" d="M98.09,193a3,3,0,1,0-3,3A3,3,0,0,0,98.09,193Z" transform="translate(-20.3 -8.04)"/><path class="cls-8" d="M98.49,193a3.41,3.41,0,1,1-3.41-3.41A3.41,3.41,0,0,1,98.49,193Zm-6,0a2.61,2.61,0,1,0,2.61-2.61A2.61,2.61,0,0,0,92.47,193Z" transform="translate(-20.3 -8.04)"/><polyline class="cls-7" points="174.56 97.29 181.56 107.28 181.56 123.91"/><circle class="cls-2" cx="181.56" cy="123.74" r="3.01"/><path class="cls-8" d="M198.46,131.78a3.41,3.41,0,1,1,3.4,3.41,3.4,3.4,0,0,1-3.4-3.41Zm6,0a2.61,2.61,0,1,0-2.61,2.61,2.61,2.61,0,0,0,2.61-2.61Z" transform="translate(-20.3 -8.04)"/><polyline class="cls-7" points="171.77 153.01 171.77 125.23 154.87 108.66"/><path class="cls-2" d="M195.08,160.88a3,3,0,1,1-3-3A3,3,0,0,1,195.08,160.88Z" transform="translate(-20.3 -8.04)"/><path class="cls-8" d="M195.48,160.88a3.41,3.41,0,1,0-3.4,3.41,3.41,3.41,0,0,0,3.4-3.41Zm-6,0a2.61,2.61,0,1,1,2.61,2.61,2.61,2.61,0,0,1-2.61-2.61Z" transform="translate(-20.3 -8.04)"/><polyline class="cls-7" points="135.66 119.53 158.39 142.26 158.39 156.46"/><path class="cls-2" d="M175.68,164.33a3,3,0,1,0,3-3A3,3,0,0,0,175.68,164.33Z" transform="translate(-20.3 -8.04)"/><path class="cls-8" d="M175.28,164.33a3.41,3.41,0,1,1,3.41,3.41,3.41,3.41,0,0,1-3.41-3.41Zm6,0a2.61,2.61,0,1,0-2.61,2.61,2.61,2.61,0,0,0,2.61-2.61Z" transform="translate(-20.3 -8.04)"/><line class="cls-7" x1="242.67" y1="465.91" x2="242.67" y2="498.68"/><circle class="cls-2" cx="242.67" cy="466.08" r="3.01"/><path class="cls-8" d="M259.57,474.12a3.41,3.41,0,1,0,3.4-3.41,3.41,3.41,0,0,0-3.4,3.41Zm6,0a2.61,2.61,0,1,1-2.61-2.61,2.61,2.61,0,0,1,2.61,2.61Z" transform="translate(-20.3 -8.04)"/><line class="cls-7" x1="242.67" y1="269.18" x2="242.67" y2="297.53"/><circle class="cls-2" cx="242.67" cy="297.36" r="3.01"/><path class="cls-8" d="M259.57,305.4a3.41,3.41,0,1,1,3.4,3.41,3.41,3.41,0,0,1-3.4-3.41Zm6,0A2.61,2.61,0,1,0,263,308a2.61,2.61,0,0,0,2.61-2.61Z" transform="translate(-20.3 -8.04)"/><polyline class="cls-7" points="242.91 448.33 242.91 359.91 242.91 317.32"/><path class="cls-2" d="M266.23,456.2a3,3,0,1,1-3-3A3,3,0,0,1,266.23,456.2Z" transform="translate(-20.3 -8.04)"/><path class="cls-8" d="M266.63,456.2a3.41,3.41,0,1,0-3.41,3.41,3.41,3.41,0,0,0,3.41-3.41Zm-6,0a2.61,2.61,0,1,1,2.61,2.61,2.61,2.61,0,0,1-2.61-2.61Z" transform="translate(-20.3 -8.04)"/><path class="cls-2" d="M266.23,325.53a3,3,0,1,0-3,3A3,3,0,0,0,266.23,325.53Z" transform="translate(-20.3 -8.04)"/><path class="cls-8" d="M266.63,325.53a3.41,3.41,0,1,1-3.41-3.41,3.41,3.41,0,0,1,3.41,3.41Zm-6,0a2.61,2.61,0,1,0,2.61-2.61,2.61,2.61,0,0,0-2.61,2.61Z" transform="translate(-20.3 -8.04)"/><line class="cls-7" x1="349.4" y1="412.43" x2="349.4" y2="374.66"/><circle class="cls-2" cx="349.4" cy="412.26" r="3.01"/><path class="cls-8" d="M373.11,420.3a3.41,3.41,0,1,0-3.41,3.41,3.41,3.41,0,0,0,3.41-3.41Zm-6,0a2.61,2.61,0,1,1,2.61,2.61,2.61,2.61,0,0,1-2.61-2.61Z" transform="translate(-20.3 -8.04)"/><polyline class="cls-7" points="338.97 363.58 329.23 373.32 329.23 396.24"/><circle class="cls-2" cx="329.23" cy="396.07" r="3.01"/><path class="cls-8" d="M346.13,404.11a3.41,3.41,0,1,1,3.4,3.41,3.41,3.41,0,0,1-3.4-3.41Zm6,0a2.61,2.61,0,1,0-2.61,2.61,2.61,2.61,0,0,0,2.61-2.61Z" transform="translate(-20.3 -8.04)"/><line class="cls-7" x1="261.31" y1="393.03" x2="261.31" y2="412.71"/><path class="cls-2" d="M278.6,401.24a3,3,0,1,1,3,3A3,3,0,0,1,278.6,401.24Z" transform="translate(-20.3 -8.04)"/><path class="cls-8" d="M278.2,401.24a3.41,3.41,0,1,0,3.41-3.41,3.41,3.41,0,0,0-3.41,3.41Zm6,0a2.61,2.61,0,1,1-2.61-2.61,2.61,2.61,0,0,1,2.61,2.61Z" transform="translate(-20.3 -8.04)"/><path class="cls-2" d="M278.6,420.58a3,3,0,1,0,3-3A3,3,0,0,0,278.6,420.58Z" transform="translate(-20.3 -8.04)"/><path class="cls-8" d="M278.2,420.58a3.41,3.41,0,1,1,3.41,3.41,3.41,3.41,0,0,1-3.41-3.41Zm6,0a2.61,2.61,0,1,0-2.61,2.61,2.61,2.61,0,0,0,2.61-2.61Z" transform="translate(-20.3 -8.04)"/><line class="cls-7" x1="290.93" y1="359.7" x2="290.93" y2="340.01"/><path class="cls-2" d="M314.24,367.57a3,3,0,1,1-3-3A3,3,0,0,1,314.24,367.57Z" transform="translate(-20.3 -8.04)"/><path class="cls-8" d="M314.64,367.57a3.41,3.41,0,1,0-3.4,3.41,3.41,3.41,0,0,0,3.4-3.41Zm-6,0a2.61,2.61,0,1,1,2.61,2.61,2.61,2.61,0,0,1-2.61-2.61Z" transform="translate(-20.3 -8.04)"/><path class="cls-2" d="M314.24,348.22a3,3,0,1,0-3,3A3,3,0,0,0,314.24,348.22Z" transform="translate(-20.3 -8.04)"/><path class="cls-8" d="M314.64,348.22a3.41,3.41,0,1,1-3.4-3.4,3.41,3.41,0,0,1,3.4,3.4Zm-6,0a2.61,2.61,0,1,0,2.61-2.6,2.61,2.61,0,0,0-2.61,2.6Z" transform="translate(-20.3 -8.04)"/><polyline class="cls-7" points="331.76 435.48 331.76 421.28 305.61 395.12 305.61 329.17"/><path class="cls-2" d="M355.08,443.35a3,3,0,1,1-3-3A3,3,0,0,1,355.08,443.35Z" transform="translate(-20.3 -8.04)"/><path class="cls-8" d="M355.48,443.35a3.41,3.41,0,1,0-3.41,3.41,3.41,3.41,0,0,0,3.41-3.41Zm-6,0a2.61,2.61,0,1,1,2.61,2.61,2.61,2.61,0,0,1-2.61-2.61Z" transform="translate(-20.3 -8.04)"/><polyline class="cls-7" points="272.37 361.37 272.37 334.09 285.45 320.61 285.45 307.74"/><path class="cls-2" d="M295.68,369.24a3,3,0,1,1-3-3A3,3,0,0,1,295.68,369.24Z" transform="translate(-20.3 -8.04)"/><path class="cls-8" d="M296.08,369.24a3.41,3.41,0,1,0-3.4,3.4,3.41,3.41,0,0,0,3.4-3.4Zm-6,0a2.61,2.61,0,1,1,2.61,2.6,2.61,2.61,0,0,1-2.61-2.6Z" transform="translate(-20.3 -8.04)"/><polyline class="cls-7" points="296.52 380.92 296.52 421.28 328.44 453.21 322.67 447.45"/><circle class="cls-2" cx="296.52" cy="381.09" r="3.01"/><path class="cls-8" d="M313.41,389.13a3.41,3.41,0,1,0,3.41-3.41,3.41,3.41,0,0,0-3.41,3.41Zm6,0a2.61,2.61,0,1,1-2.61-2.61,2.61,2.61,0,0,1,2.61,2.61Z" transform="translate(-20.3 -8.04)"/><line class="cls-7" x1="393.63" y1="323.32" x2="393.63" y2="350.35"/><path class="cls-2" d="M410.92,331.53a3,3,0,1,1,3,3A3,3,0,0,1,410.92,331.53Z" transform="translate(-20.3 -8.04)"/><path class="cls-8" d="M410.52,331.53a3.41,3.41,0,1,0,3.41-3.41,3.41,3.41,0,0,0-3.41,3.41Zm6,0a2.61,2.61,0,1,1-2.61-2.61,2.61,2.61,0,0,1,2.61,2.61Z" transform="translate(-20.3 -8.04)"/><line class="cls-7" x1="406.71" y1="346.84" x2="406.71" y2="379.61"/><path class="cls-2" d="M424,355.05a3,3,0,1,1,3,3A3,3,0,0,1,424,355.05Z" transform="translate(-20.3 -8.04)"/><path class="cls-8" d="M423.6,355.05a3.41,3.41,0,1,0,3.41-3.41,3.41,3.41,0,0,0-3.41,3.41Zm6,0a2.61,2.61,0,1,1-2.61-2.61,2.61,2.61,0,0,1,2.61,2.61Z" transform="translate(-20.3 -8.04)"/><line class="cls-7" x1="261.31" y1="431.3" x2="261.31" y2="477.14"/><path class="cls-2" d="M278.6,439.51a3,3,0,1,1,3,3A3,3,0,0,1,278.6,439.51Z" transform="translate(-20.3 -8.04)"/><path class="cls-8" d="M278.2,439.51a3.41,3.41,0,1,0,3.41-3.41,3.41,3.41,0,0,0-3.41,3.41Zm6,0a2.61,2.61,0,1,1-2.61-2.61,2.61,2.61,0,0,1,2.61,2.61Z" transform="translate(-20.3 -8.04)"/><path class="cls-2" d="M278.6,485a3,3,0,1,0,3-3A3,3,0,0,0,278.6,485Z" transform="translate(-20.3 -8.04)"/><path class="cls-8" d="M278.2,485a3.41,3.41,0,1,1,3.41,3.41A3.41,3.41,0,0,1,278.2,485Zm6,0a2.61,2.61,0,1,0-2.61,2.61,2.61,2.61,0,0,0,2.61-2.61Z" transform="translate(-20.3 -8.04)"/><line class="cls-7" x1="282.84" y1="458.49" x2="282.84" y2="479.54"/><circle class="cls-2" cx="282.84" cy="458.66" r="3.01"/><path class="cls-8" d="M299.74,466.7a3.41,3.41,0,1,0,3.41-3.41,3.41,3.41,0,0,0-3.41,3.41Zm6,0a2.61,2.61,0,1,1-2.6-2.61,2.61,2.61,0,0,1,2.6,2.61Z" transform="translate(-20.3 -8.04)"/><polyline class="cls-7" points="309.86 463.84 309 462.98 282.84 436.82 282.84 393.22 256.69 367.07 256.69 300.55"/><circle class="cls-2" cx="256.68" cy="300.72" r="3.01"/><path class="cls-8" d="M280.4,308.76a3.41,3.41,0,1,1-3.41-3.41,3.41,3.41,0,0,1,3.41,3.41Zm-6,0a2.61,2.61,0,1,0,2.61-2.61,2.61,2.61,0,0,0-2.61,2.61Z" transform="translate(-20.3 -8.04)"/><polyline class="cls-7" points="420.38 318.36 403.89 302.44 403.25 265.45 393.03 255.59"/><path class="cls-2" d="M442.65,324.12a3,3,0,1,1-4.25.08A3,3,0,0,1,442.65,324.12Z" transform="translate(-20.3 -8.04)"/><path class="cls-8" d="M442.93,323.83a3.41,3.41,0,1,0,.08,4.82,3.42,3.42,0,0,0-.08-4.82C441.58,322.53,444.28,325.14,442.93,323.83Zm-4.18,4.33a2.61,2.61,0,1,1,3.69-.06,2.62,2.62,0,0,1-3.69.06Z" transform="translate(-20.3 -8.04)"/><path class="cls-2" d="M415.55,261.58a3,3,0,1,0,.07,4.26A3,3,0,0,0,415.55,261.58Z" transform="translate(-20.3 -8.04)"/><path class="cls-8" d="M415.82,261.3a3.41,3.41,0,1,1-4.81.08,3.4,3.4,0,0,1,4.81-.08C417.18,262.6,414.47,260,415.82,261.3Zm-4.17,4.32a2.61,2.61,0,1,0-.07-3.68,2.6,2.6,0,0,0,.07,3.68Z" transform="translate(-20.3 -8.04)"/><line class="cls-7" x1="332.7" y1="192.89" x2="332.7" y2="173.21"/><path class="cls-2" d="M356,200.76a3,3,0,1,1-3-3A3,3,0,0,1,356,200.76Z" transform="translate(-20.3 -8.04)"/><path class="cls-8" d="M356.42,200.76a3.41,3.41,0,1,0-3.41,3.41,3.41,3.41,0,0,0,3.41-3.41Zm-6,0a2.61,2.61,0,1,1,2.61,2.61,2.61,2.61,0,0,1-2.61-2.61Z" transform="translate(-20.3 -8.04)"/><circle class="cls-2" cx="332.7" cy="173.38" r="3.01"/><path class="cls-8" d="M356.42,181.42A3.41,3.41,0,1,1,353,178a3.41,3.41,0,0,1,3.41,3.41Zm-6,0a2.61,2.61,0,1,0,2.61-2.61,2.61,2.61,0,0,0-2.61,2.61Z" transform="translate(-20.3 -8.04)"/><polyline class="cls-7" points="380.55 137.49 380.55 290.49 406.7 316.65 406.7 330.85"/><path class="cls-2" d="M424,338.72a3,3,0,1,0,3-3A3,3,0,0,0,424,338.72Z" transform="translate(-20.3 -8.04)"/><path class="cls-8" d="M423.6,338.72a3.41,3.41,0,1,1,3.41,3.41,3.41,3.41,0,0,1-3.41-3.41Zm6,0a2.61,2.61,0,1,0-2.61,2.61,2.61,2.61,0,0,0,2.61-2.61Z" transform="translate(-20.3 -8.04)"/><polyline class="cls-7" points="369.47 429.53 369.47 265.25 348.8 235.79 348.4 196.13 348.77 163.86"/><path class="cls-2" d="M372.08,172.1a3,3,0,1,0-3.05,3A3,3,0,0,0,372.08,172.1Z" transform="translate(-20.3 -8.04)"/><path class="cls-8" d="M372.48,172.11a3.41,3.41,0,1,1-3.37-3.45,3.41,3.41,0,0,1,3.37,3.45C372.45,174,372.5,170.23,372.48,172.11Zm-6-.07a2.61,2.61,0,1,0,2.64-2.58,2.61,2.61,0,0,0-2.64,2.58Z" transform="translate(-20.3 -8.04)"/><line class="cls-7" x1="419.78" y1="370.66" x2="419.78" y2="333.53"/><path class="cls-2" d="M443.1,378.53a3,3,0,1,1-3-3A3,3,0,0,1,443.1,378.53Z" transform="translate(-20.3 -8.04)"/><path class="cls-8" d="M443.5,378.53a3.41,3.41,0,1,0-3.41,3.4,3.41,3.41,0,0,0,3.41-3.4Zm-6,0a2.61,2.61,0,1,1,2.61,2.6,2.61,2.61,0,0,1-2.61-2.6Z" transform="translate(-20.3 -8.04)"/><path class="cls-2" d="M443.1,341.75a3,3,0,1,0-3,3A3,3,0,0,0,443.1,341.75Z" transform="translate(-20.3 -8.04)"/><path class="cls-8" d="M443.5,341.75a3.41,3.41,0,1,1-3.41-3.41,3.41,3.41,0,0,1,3.41,3.41Zm-6,0a2.61,2.61,0,1,0,2.61-2.61,2.61,2.61,0,0,0-2.61,2.61Z" transform="translate(-20.3 -8.04)"/><line class="cls-7" x1="361.64" y1="167.29" x2="361.64" y2="213.14"/><path class="cls-2" d="M378.93,175.51a3,3,0,1,1,3,3A3,3,0,0,1,378.93,175.51Z" transform="translate(-20.3 -8.04)"/><path class="cls-8" d="M378.53,175.51a3.41,3.41,0,1,0,3.41-3.41,3.41,3.41,0,0,0-3.41,3.41Zm6,0a2.61,2.61,0,1,1-2.61-2.61,2.61,2.61,0,0,1,2.61,2.61Z" transform="translate(-20.3 -8.04)"/><path class="cls-2" d="M378.93,221a3,3,0,1,0,3-3A3,3,0,0,0,378.93,221Z" transform="translate(-20.3 -8.04)"/><path class="cls-8" d="M378.53,221a3.41,3.41,0,1,1,3.41,3.4,3.41,3.41,0,0,1-3.41-3.4Zm6,0a2.61,2.61,0,1,0-2.61,2.6,2.61,2.61,0,0,0,2.61-2.6Z" transform="translate(-20.3 -8.04)"/><line class="cls-7" x1="361.64" y1="126.57" x2="361.64" y2="151.05"/><path class="cls-2" d="M378.93,158.92a3,3,0,1,0,3-3A3,3,0,0,0,378.93,158.92Z" transform="translate(-20.3 -8.04)"/><path class="cls-8" d="M378.53,158.92a3.41,3.41,0,1,1,3.41,3.41,3.41,3.41,0,0,1-3.41-3.41Zm6,0a2.61,2.61,0,1,0-2.61,2.61,2.61,2.61,0,0,0,2.61-2.61Z" transform="translate(-20.3 -8.04)"/><polyline class="cls-7" points="419.78 291.61 419.78 251.25 393.63 225.09 393.63 145.04"/><circle class="cls-2" cx="419.78" cy="291.44" r="3.01"/><path class="cls-8" d="M443.5,299.48a3.41,3.41,0,1,0-3.41,3.41,3.41,3.41,0,0,0,3.41-3.41Zm-6,0a2.61,2.61,0,1,1,2.61,2.61,2.61,2.61,0,0,1-2.61-2.61Z" transform="translate(-20.3 -8.04)"/><line class="cls-7" x1="410.81" y1="221.86" x2="410.81" y2="184.73"/><circle class="cls-2" cx="410.81" cy="221.69" r="3.01"/><path class="cls-8" d="M434.52,229.73a3.41,3.41,0,1,0-3.41,3.4,3.41,3.41,0,0,0,3.41-3.4Zm-6,0a2.61,2.61,0,1,1,2.61,2.6,2.61,2.61,0,0,1-2.61-2.6Z" transform="translate(-20.3 -8.04)"/><circle class="cls-2" cx="410.81" cy="184.9" r="3.01"/><path class="cls-8" d="M434.52,193a3.41,3.41,0,1,1-3.41-3.41,3.41,3.41,0,0,1,3.41,3.41Zm-6,0a2.61,2.61,0,1,0,2.61-2.61A2.61,2.61,0,0,0,428.5,193Z" transform="translate(-20.3 -8.04)"/><polyline class="cls-7" points="311.02 97.29 304.02 107.28 304.02 123.91"/><circle class="cls-2" cx="304.02" cy="123.74" r="3.01"/><path class="cls-8" d="M320.92,131.78a3.41,3.41,0,1,1,3.41,3.41,3.41,3.41,0,0,1-3.41-3.41Zm6,0a2.61,2.61,0,1,0-2.6,2.61,2.6,2.6,0,0,0,2.6-2.61Z" transform="translate(-20.3 -8.04)"/><polyline class="cls-7" points="313.81 153.01 313.81 125.23 330.71 108.66"/><circle class="cls-2" cx="313.81" cy="152.84" r="3.01"/><path class="cls-8" d="M337.52,160.88a3.41,3.41,0,1,0-3.41,3.41,3.41,3.41,0,0,0,3.41-3.41Zm-6,0a2.61,2.61,0,1,1,2.6,2.61,2.61,2.61,0,0,1-2.6-2.61Z" transform="translate(-20.3 -8.04)"/><polyline class="cls-7" points="349.93 119.53 327.2 142.26 327.2 156.46"/><circle class="cls-2" cx="327.2" cy="156.29" r="3.01"/><path class="cls-8" d="M344.09,164.33a3.41,3.41,0,1,1,3.41,3.41,3.41,3.41,0,0,1-3.41-3.41Zm6,0a2.61,2.61,0,1,0-2.61,2.61,2.61,2.61,0,0,0,2.61-2.61Z" transform="translate(-20.3 -8.04)"/><path class="cls-9" d="M284.82,72.24l169,374-12-1.48a39,39,0,0,1-23.67-12L277,282.81a19.15,19.15,0,0,0-27.9,0l-142,151a39,39,0,0,1-29.19,12.29L72.41,446,241.25,72.24a12.45,12.45,0,0,1,11.36-7.33h20.85A12.44,12.44,0,0,1,284.82,72.24Z" transform="translate(-20.3 -8.04)"/><polygon class="cls-10" points="223.84 219.24 125.22 328.12 204.23 211.65 223.84 106.61 223.84 219.24"/><polygon class="cls-10" points="264.42 219.24 363.04 328.12 284.02 211.65 264.42 106.61 264.42 219.24"/></svg>